<?xml version="1.0" standalone="no"?>
<!DOCTYPE svg PUBLIC "-//W3C//DTD SVG 20010904//EN"
 "http://www.w3.org/TR/2001/REC-SVG-20010904/DTD/svg10.dtd">
<svg version="1.0" xmlns="http://www.w3.org/2000/svg"
 width="954.000000pt" height="139.000000pt" viewBox="0 0 954.000000 139.000000"
 preserveAspectRatio="xMidYMid meet">

<g transform="translate(0.000000,139.000000) scale(0.100000,-0.100000)"
fill="#000000" stroke="none">
<path d="M2005 1376 c-95 -18 -216 -67 -295 -118 -36 -23 -106 -83 -156 -132
-77 -77 -98 -105 -138 -186 -55 -113 -76 -207 -76 -338 0 -183 49 -311 165
-428 115 -117 267 -174 464 -174 224 0 410 73 569 224 124 118 194 239 234
404 26 112 28 254 4 337 -55 185 -199 330 -390 391 -100 32 -273 41 -381 20z
m258 -350 c104 -51 177 -160 177 -266 0 -100 -55 -223 -137 -307 -136 -140
-368 -165 -494 -54 -89 78 -129 194 -109 317 24 148 133 269 295 327 75 27
195 19 268 -17z"/>
<path d="M185 1338 c-6 -15 -89 -597 -140 -968 -20 -146 -38 -280 -41 -297
l-6 -33 185 0 185 0 5 28 c3 15 20 138 38 275 l33 247 253 0 c139 0 253 -4
253 -8 0 -4 -16 -122 -35 -261 -19 -139 -35 -259 -35 -267 0 -12 29 -14 173
-14 l174 0 28 203 c15 111 26 229 24 262 -9 157 11 306 53 404 17 41 68 345
68 414 l0 27 -177 -2 -177 -3 -28 -234 c-15 -128 -29 -235 -31 -237 -2 -3
-116 -3 -253 -2 l-250 3 27 190 c14 105 29 211 32 238 l7 47 -181 0 c-135 0
-181 -3 -184 -12z"/>
<path d="M2667 1271 c43 -43 96 -108 117 -145 l39 -66 79 0 80 0 -6 -37 c-4
-21 -33 -236 -66 -478 -33 -242 -62 -455 -65 -472 l-6 -33 169 0 170 0 6 33
c3 17 32 232 66 477 33 245 62 460 65 478 l6 32 139 0 c77 0 140 3 140 8 0 4
9 66 20 137 11 72 20 133 20 138 0 4 -237 7 -526 7 l-525 0 78 -79z"/>
<path d="M3965 1344 c-89 -21 -108 -30 -134 -60 -16 -18 -32 -45 -35 -61 -3
-15 -40 -275 -81 -578 -41 -302 -77 -563 -80 -578 l-5 -29 308 5 c322 4 336 6
461 56 175 70 348 242 418 414 52 129 68 304 38 420 -49 188 -200 340 -392
393 -43 12 -114 17 -268 20 -115 1 -219 1 -230 -2z m402 -325 c119 -61 167
-168 145 -324 -33 -229 -193 -365 -430 -365 l-73 0 6 33 c3 17 23 165 45 327
22 162 43 312 46 334 l6 39 95 -5 c82 -5 103 -10 160 -39z"/>
<path d="M5173 1340 c-80 -16 -135 -60 -147 -118 -3 -15 -40 -274 -81 -577
-41 -302 -77 -562 -80 -577 l-4 -28 369 0 369 0 73 143 73 142 -253 3 -253 2
6 33 c6 37 25 168 25 179 0 4 87 9 193 10 l192 3 17 120 c9 66 17 130 17 143
l1 22 -190 0 -191 0 6 33 c6 37 25 168 25 180 0 4 91 7 203 7 l203 0 17 133
c10 72 17 138 17 145 0 9 -63 12 -282 11 -156 -1 -302 -5 -325 -9z"/>
<path d="M6423 1340 c-41 -9 -79 -34 -97 -63 -7 -12 -129 -245 -271 -517 -142
-272 -284 -546 -317 -608 l-60 -112 182 2 183 3 59 113 60 112 233 0 233 0 28
-115 28 -115 178 0 c118 0 178 4 178 11 0 9 -279 1180 -301 1262 l-10 37 -137
-1 c-75 -1 -152 -4 -169 -9z m112 -618 c20 -101 35 -186 32 -188 -2 -3 -65 -3
-139 -2 l-134 3 95 202 c67 141 98 196 103 185 4 -9 23 -100 43 -200z"/>
<path d="M7392 1339 c-59 -11 -107 -43 -125 -82 -9 -18 -47 -264 -91 -587 -42
-305 -79 -572 -82 -592 l-6 -38 374 0 374 0 17 128 c9 70 17 136 17 145 0 15
-19 17 -200 17 -154 0 -200 3 -200 13 1 6 31 233 69 502 37 270 66 493 64 498
-5 9 -156 7 -211 -4z"/>
<path d="M9276 1125 c-226 -94 -606 -192 -909 -234 -88 -13 -148 -26 -166 -38
-16 -10 -74 -87 -131 -171 -78 -117 -100 -159 -96 -176 6 -24 314 -324 355
-345 62 -34 541 9 841 75 162 36 322 83 342 100 9 9 19 26 22 40 7 27 -131
742 -147 762 -14 18 -45 14 -111 -13z m-62 -296 c39 -31 46 -49 70 -195 l23
-134 -53 -15 c-28 -8 -57 -15 -62 -15 -5 0 -17 42 -26 93 -26 142 -26 145 -41
157 -24 20 -75 2 -89 -32 -13 -29 -9 -76 19 -224 5 -31 5 -31 -55 -44 -33 -7
-62 -11 -64 -9 -3 3 -55 298 -59 339 -1 10 18 20 61 31 l62 17 0 -26 0 -27 20
29 c45 69 142 96 194 55z m-433 -263 c-33 -103 -61 -190 -64 -193 -3 -2 -23
-7 -44 -9 l-38 -4 -115 151 c-63 84 -116 158 -118 166 -2 9 7 13 31 13 19 0
48 3 65 6 28 6 33 1 87 -75 32 -44 60 -79 62 -77 2 2 14 43 28 91 13 48 25 89
28 91 4 4 130 32 134 29 1 0 -24 -85 -56 -189z m-499 -2 c58 -56 25 -144 -55
-144 -96 0 -147 135 -64 170 35 15 88 3 119 -26z"/>
</g>
</svg>
